<svg width="24" height="24" viewBox="0 0 24 24" fill="none" xmlns="http://www.w3.org/2000/svg">
<path d="M6.75 22.0008C6 22.0008 5.35417 21.7466 4.8125 21.2383C4.27083 20.7299 4 20.1008 4 19.3508V5.40078C4 4.76745 4.19583 4.20078 4.5875 3.70078C4.97917 3.20078 5.49167 2.88411 6.125 2.75078L16 0.800781V16.8008L6.525 18.7008C6.375 18.7341 6.25 18.8133 6.15 18.9383C6.05 19.0633 6 19.2008 6 19.3508C6 19.5341 6.075 19.6883 6.225 19.8133C6.375 19.9383 6.55 20.0008 6.75 20.0008H18V4.00078H20V22.0008H6.75ZM9 16.1758L14 15.2008V3.25078L9 4.22578V16.1758ZM7 16.5758V4.62578L6.625 4.70078C6.44167 4.73411 6.29167 4.81328 6.175 4.93828C6.05833 5.06328 6 5.21745 6 5.40078V16.8258C6.08333 16.7924 6.17083 16.7633 6.2625 16.7383C6.35417 16.7133 6.44167 16.6924 6.525 16.6758L7 16.5758Z" fill="#FEFEFE"/>
</svg>
