<svg width="24" height="24" viewBox="0 0 24 24" fill="none" xmlns="http://www.w3.org/2000/svg">
<path d="M4 20C3.45 20 2.97917 19.8042 2.5875 19.4125C2.19583 19.0208 2 18.55 2 18V6C2 5.45 2.19583 4.97917 2.5875 4.5875C2.97917 4.19583 3.45 4 4 4L6 8H9L7 4H9L11 8H14L12 4H14L16 8H19L17 4H20C20.55 4 21.0208 4.19583 21.4125 4.5875C21.8042 4.97917 22 5.45 22 6V10H4V18H8V20H4ZM16 22L13 19H10V15H13L16 12V22ZM18 22.9V20.85C18.8667 20.6167 19.5833 20.15 20.15 19.45C20.7167 18.75 21 17.9333 21 17C21 16.0667 20.7167 15.25 20.15 14.55C19.5833 13.85 18.8667 13.3833 18 13.15V11.1C19.4333 11.3333 20.625 12 21.575 13.1C22.525 14.2 23 15.5 23 17C23 18.5 22.525 19.8 21.575 20.9C20.625 22 19.4333 22.6667 18 22.9ZM18 19.3V14.7C18.45 14.8833 18.8125 15.1833 19.0875 15.6C19.3625 16.0167 19.5 16.4833 19.5 17C19.5 17.5167 19.3625 17.9833 19.0875 18.4C18.8125 18.8167 18.45 19.1167 18 19.3Z" fill="#FEFEFE"/>
</svg>
